<svg xmlns="http://www.w3.org/2000/svg" xmlns:xlink="http://www.w3.org/1999/xlink" width="500" zoomAndPan="magnify" viewBox="0 0 375 374.999991" height="500" preserveAspectRatio="xMidYMid meet" version="1.0"><defs><g/><clipPath id="69a83e91cb"><path d="M 119 143 L 283 143 L 283 288.152344 L 119 288.152344 Z M 119 143 " clip-rule="nonzero"/></clipPath><clipPath id="739c753425"><path d="M 109.53125 226 L 128 226 L 128 235 L 109.53125 235 Z M 109.53125 226 " clip-rule="nonzero"/></clipPath><clipPath id="d9853b82f6"><path d="M 274 226 L 292.53125 226 L 292.53125 235 L 274 235 Z M 274 226 " clip-rule="nonzero"/></clipPath><clipPath id="263a028fda"><path d="M 80 127 L 183 127 L 183 211 L 80 211 Z M 80 127 " clip-rule="nonzero"/></clipPath><clipPath id="98a2c42dde"><path d="M 123.230469 204.492188 C 123.230469 204.492188 93.121094 222.148438 81.308594 196.796875 C 81.308594 196.796875 76.648438 188.382812 88.664062 176.722656 C 88.664062 176.722656 96.933594 173.476562 94.964844 157.328125 C 94.964844 157.328125 88.332031 128.046875 129.796875 138.160156 C 129.796875 138.160156 162.394531 113.492188 179.988281 139.832031 C 179.988281 139.832031 189.148438 159.1875 170.539062 166.921875 C 170.601562 166.984375 120.371094 184.414062 123.230469 204.492188 Z M 123.230469 204.492188 " clip-rule="nonzero"/></clipPath><linearGradient x1="281.51959" gradientTransform="matrix(0.194558, -0.0711701, -0.0713254, -0.194135, 86.81238, 224.953976)" y1="533.498688" x2="304.311474" gradientUnits="userSpaceOnUse" y2="-168.441452" id="299630ec88"><stop stop-opacity="1" stop-color="rgb(100%, 97.999573%, 96.099854%)" offset="0"/><stop stop-opacity="1" stop-color="rgb(100%, 97.999573%, 96.099854%)" offset="0.0319118"/><stop stop-opacity="1" stop-color="rgb(100%, 97.999573%, 96.099854%)" offset="0.25"/><stop stop-opacity="1" stop-color="rgb(100%, 97.999573%, 96.099854%)" offset="0.375"/><stop stop-opacity="1" stop-color="rgb(100%, 97.999573%, 96.099854%)" offset="0.4375"/><stop stop-opacity="1" stop-color="rgb(99.935913%, 97.949219%, 96.061707%)" offset="0.453125"/><stop stop-opacity="1" stop-color="rgb(99.742126%, 97.793579%, 95.944214%)" offset="0.460938"/><stop stop-opacity="1" stop-color="rgb(99.479675%, 97.584534%, 95.785522%)" offset="0.46875"/><stop stop-opacity="1" stop-color="rgb(99.217224%, 97.375488%, 95.628357%)" offset="0.476562"/><stop stop-opacity="1" stop-color="rgb(98.953247%, 97.166443%, 95.469666%)" offset="0.484375"/><stop stop-opacity="1" stop-color="rgb(98.690796%, 96.957397%, 95.310974%)" offset="0.492188"/><stop stop-opacity="1" stop-color="rgb(98.428345%, 96.748352%, 95.153809%)" offset="0.5"/><stop stop-opacity="1" stop-color="rgb(98.165894%, 96.539307%, 94.995117%)" offset="0.507812"/><stop stop-opacity="1" stop-color="rgb(97.903442%, 96.330261%, 94.836426%)" offset="0.515625"/><stop stop-opacity="1" stop-color="rgb(97.639465%, 96.121216%, 94.67926%)" offset="0.523438"/><stop stop-opacity="1" stop-color="rgb(97.377014%, 95.91217%, 94.520569%)" offset="0.53125"/><stop stop-opacity="1" stop-color="rgb(97.114563%, 95.703125%, 94.361877%)" offset="0.539062"/><stop stop-opacity="1" stop-color="rgb(96.852112%, 95.49408%, 94.204712%)" offset="0.546875"/><stop stop-opacity="1" stop-color="rgb(96.589661%, 95.285034%, 94.046021%)" offset="0.554687"/><stop stop-opacity="1" stop-color="rgb(96.325684%, 95.074463%, 93.887329%)" offset="0.5625"/><stop stop-opacity="1" stop-color="rgb(96.063232%, 94.865417%, 93.730164%)" offset="0.570312"/><stop stop-opacity="1" stop-color="rgb(95.800781%, 94.656372%, 93.571472%)" offset="0.578125"/><stop stop-opacity="1" stop-color="rgb(95.53833%, 94.447327%, 93.412781%)" offset="0.585938"/><stop stop-opacity="1" stop-color="rgb(95.275879%, 94.238281%, 93.255615%)" offset="0.59375"/><stop stop-opacity="1" stop-color="rgb(95.011902%, 94.029236%, 93.096924%)" offset="0.601562"/><stop stop-opacity="1" stop-color="rgb(94.749451%, 93.82019%, 92.938232%)" offset="0.609375"/><stop stop-opacity="1" stop-color="rgb(94.487%, 93.611145%, 92.781067%)" offset="0.617187"/><stop stop-opacity="1" stop-color="rgb(94.224548%, 93.4021%, 92.622375%)" offset="0.625"/><stop stop-opacity="1" stop-color="rgb(93.960571%, 93.193054%, 92.463684%)" offset="0.632812"/><stop stop-opacity="1" stop-color="rgb(93.69812%, 92.984009%, 92.306519%)" offset="0.640625"/><stop stop-opacity="1" stop-color="rgb(93.435669%, 92.774963%, 92.147827%)" offset="0.648438"/><stop stop-opacity="1" stop-color="rgb(93.173218%, 92.565918%, 91.989136%)" offset="0.65625"/><stop stop-opacity="1" stop-color="rgb(92.910767%, 92.356873%, 91.83197%)" offset="0.664062"/><stop stop-opacity="1" stop-color="rgb(92.64679%, 92.147827%, 91.673279%)" offset="0.671875"/><stop stop-opacity="1" stop-color="rgb(92.384338%, 91.938782%, 91.514587%)" offset="0.679688"/><stop stop-opacity="1" stop-color="rgb(92.121887%, 91.729736%, 91.355896%)" offset="0.6875"/><stop stop-opacity="1" stop-color="rgb(91.859436%, 91.519165%, 91.19873%)" offset="0.695312"/><stop stop-opacity="1" stop-color="rgb(91.596985%, 91.31012%, 91.040039%)" offset="0.703125"/><stop stop-opacity="1" stop-color="rgb(91.333008%, 91.101074%, 90.881348%)" offset="0.710937"/><stop stop-opacity="1" stop-color="rgb(91.070557%, 90.892029%, 90.724182%)" offset="0.71875"/><stop stop-opacity="1" stop-color="rgb(90.808105%, 90.682983%, 90.565491%)" offset="0.726562"/><stop stop-opacity="1" stop-color="rgb(90.545654%, 90.473938%, 90.406799%)" offset="0.734375"/><stop stop-opacity="1" stop-color="rgb(90.306091%, 90.284729%, 90.263367%)" offset="0.75"/><stop stop-opacity="1" stop-color="rgb(90.19928%, 90.19928%, 90.19928%)" offset="0.968088"/><stop stop-opacity="1" stop-color="rgb(90.19928%, 90.19928%, 90.19928%)" offset="1"/></linearGradient><clipPath id="2a80c10f37"><path d="M 84 201 L 87 201 L 87 204 L 84 204 Z M 84 201 " clip-rule="nonzero"/></clipPath><clipPath id="11ca9b4493"><path d="M 86.261719 203.871094 C 85.578125 203.25 84.914062 202.628906 84.230469 201.96875 C 84.230469 201.96875 84.914062 202.816406 86.261719 203.871094 Z M 86.261719 203.871094 " clip-rule="nonzero"/></clipPath><linearGradient x1="28.152015" gradientTransform="matrix(0.194558, -0.0711701, -0.0713254, -0.194135, 86.81238, 224.953976)" y1="109.624391" x2="30.97489" gradientUnits="userSpaceOnUse" y2="95.680974" id="a93033d7e4"><stop stop-opacity="1" stop-color="rgb(85.472107%, 84.342957%, 83.242798%)" offset="0"/><stop stop-opacity="1" stop-color="rgb(85.305786%, 84.187317%, 83.094788%)" offset="0.125"/><stop stop-opacity="1" stop-color="rgb(84.973145%, 83.874512%, 82.801819%)" offset="0.172505"/><stop stop-opacity="1" stop-color="rgb(84.80835%, 83.718872%, 82.655334%)" offset="0.25"/><stop stop-opacity="1" stop-color="rgb(84.642029%, 83.563232%, 82.507324%)" offset="0.375"/><stop stop-opacity="1" stop-color="rgb(84.309387%, 83.251953%, 82.214355%)" offset="0.5"/><stop stop-opacity="1" stop-color="rgb(83.978271%, 82.939148%, 81.921387%)" offset="0.625"/><stop stop-opacity="1" stop-color="rgb(83.647156%, 82.627869%, 81.626892%)" offset="0.75"/><stop stop-opacity="1" stop-color="rgb(83.314514%, 82.316589%, 81.333923%)" offset="0.827495"/><stop stop-opacity="1" stop-color="rgb(83.149719%, 82.16095%, 81.187439%)" offset="0.875"/><stop stop-opacity="1" stop-color="rgb(82.983398%, 82.003784%, 81.039429%)" offset="1"/></linearGradient><clipPath id="d501dfc520"><path d="M 117 163 L 184 163 L 184 212 L 117 212 Z M 117 163 " clip-rule="nonzero"/></clipPath><clipPath id="1b65ab3dca"><path d="M 120.078125 211.894531 C 120.078125 211.894531 120.308594 208.585938 118.796875 206.226562 C 117.324219 203.871094 117.449219 198.824219 119.125 195.414062 C 125.261719 183.421875 142.4375 158.792969 169.253906 164.066406 L 183.695312 180.941406 C 183.695312 180.941406 160.136719 178.191406 120.078125 211.894531 Z M 120.078125 211.894531 " clip-rule="nonzero"/></clipPath><linearGradient x1="159.987333" gradientTransform="matrix(0.194558, -0.0711701, -0.0713254, -0.194135, 86.81238, 224.953976)" y1="84.822998" x2="549.106487" gradientUnits="userSpaceOnUse" y2="84.822998" id="874db546a5"><stop stop-opacity="1" stop-color="rgb(100%, 97.999573%, 96.099854%)" offset="0"/><stop stop-opacity="1" stop-color="rgb(100%, 97.999573%, 96.099854%)" offset="0.5"/><stop stop-opacity="1" stop-color="rgb(99.919128%, 97.935486%, 96.051025%)" offset="0.53125"/><stop stop-opacity="1" stop-color="rgb(99.697876%, 97.758484%, 95.916748%)" offset="0.546875"/><stop stop-opacity="1" stop-color="rgb(99.415588%, 97.53418%, 95.747375%)" offset="0.5625"/><stop stop-opacity="1" stop-color="rgb(99.134827%, 97.311401%, 95.578003%)" offset="0.578125"/><stop stop-opacity="1" stop-color="rgb(98.852539%, 97.087097%, 95.40863%)" offset="0.59375"/><stop stop-opacity="1" stop-color="rgb(98.571777%, 96.862793%, 95.239258%)" offset="0.609375"/><stop stop-opacity="1" stop-color="rgb(98.291016%, 96.638489%, 95.069885%)" offset="0.625"/><stop stop-opacity="1" stop-color="rgb(98.008728%, 96.414185%, 94.900513%)" offset="0.640625"/><stop stop-opacity="1" stop-color="rgb(97.727966%, 96.191406%, 94.73114%)" offset="0.65625"/><stop stop-opacity="1" stop-color="rgb(97.445679%, 95.967102%, 94.561768%)" offset="0.671875"/><stop stop-opacity="1" stop-color="rgb(97.164917%, 95.742798%, 94.392395%)" offset="0.6875"/><stop stop-opacity="1" stop-color="rgb(96.882629%, 95.518494%, 94.223022%)" offset="0.703125"/><stop stop-opacity="1" stop-color="rgb(96.601868%, 95.294189%, 94.05365%)" offset="0.71875"/><stop stop-opacity="1" stop-color="rgb(96.321106%, 95.071411%, 93.884277%)" offset="0.734375"/><stop stop-opacity="1" stop-color="rgb(96.038818%, 94.847107%, 93.714905%)" offset="0.75"/><stop stop-opacity="1" stop-color="rgb(95.758057%, 94.622803%, 93.545532%)" offset="0.765625"/><stop stop-opacity="1" stop-color="rgb(95.475769%, 94.398499%, 93.37616%)" offset="0.78125"/><stop stop-opacity="1" stop-color="rgb(95.195007%, 94.17572%, 93.206787%)" offset="0.796875"/><stop stop-opacity="1" stop-color="rgb(94.91272%, 93.951416%, 93.037415%)" offset="0.8125"/><stop stop-opacity="1" stop-color="rgb(94.631958%, 93.727112%, 92.868042%)" offset="0.828125"/><stop stop-opacity="1" stop-color="rgb(94.351196%, 93.502808%, 92.698669%)" offset="0.84375"/><stop stop-opacity="1" stop-color="rgb(94.068909%, 93.278503%, 92.529297%)" offset="0.859375"/><stop stop-opacity="1" stop-color="rgb(93.788147%, 93.055725%, 92.358398%)" offset="0.875"/><stop stop-opacity="1" stop-color="rgb(93.505859%, 92.831421%, 92.189026%)" offset="0.890625"/><stop stop-opacity="1" stop-color="rgb(93.225098%, 92.607117%, 92.019653%)" offset="0.90625"/><stop stop-opacity="1" stop-color="rgb(92.94281%, 92.382812%, 91.850281%)" offset="0.921875"/><stop stop-opacity="1" stop-color="rgb(92.662048%, 92.158508%, 91.680908%)" offset="0.9375"/><stop stop-opacity="1" stop-color="rgb(92.381287%, 91.93573%, 91.511536%)" offset="0.953125"/><stop stop-opacity="1" stop-color="rgb(92.098999%, 91.711426%, 91.342163%)" offset="0.96875"/><stop stop-opacity="1" stop-color="rgb(91.818237%, 91.487122%, 91.172791%)" offset="0.984375"/><stop stop-opacity="1" stop-color="rgb(91.53595%, 91.262817%, 91.003418%)" offset="1"/></linearGradient></defs><g clip-path="url(#69a83e91cb)"><path fill="#fbf1e2" d="M 258.824219 145.257812 C 246.242188 133.667969 224.746094 181.269531 224.746094 181.269531 L 177.3125 181.269531 C 177.3125 181.269531 155.820312 133.667969 143.238281 145.257812 C 128.355469 158.96875 111.0625 229.382812 125.117188 257.046875 C 139.175781 284.714844 173.917969 288.148438 198.601562 288.148438 C 223.277344 288.148438 262.886719 284.714844 276.941406 257.046875 C 291 229.382812 273.707031 158.96875 258.824219 145.257812 " fill-opacity="1" fill-rule="nonzero"/></g><path fill="#4a4b5c" d="M 174.5 222.058594 C 174.5 226.222656 171.816406 229.59375 168.507812 229.59375 C 165.203125 229.59375 162.519531 226.222656 162.519531 222.058594 C 162.519531 217.894531 165.203125 214.523438 168.507812 214.523438 C 171.816406 214.523438 174.5 217.894531 174.5 222.058594 " fill-opacity="1" fill-rule="nonzero"/><path fill="#4a4b5c" d="M 227.5625 222.058594 C 227.5625 226.222656 230.246094 229.59375 233.554688 229.59375 C 236.863281 229.59375 239.542969 226.222656 239.542969 222.058594 C 239.542969 217.894531 236.863281 214.523438 233.554688 214.523438 C 230.246094 214.523438 227.5625 217.894531 227.5625 222.058594 " fill-opacity="1" fill-rule="nonzero"/><path fill="#f8b37b" d="M 188.625 181.269531 L 177.3125 181.269531 C 177.3125 181.269531 155.820312 133.667969 143.238281 145.257812 C 133.527344 154.203125 122.792969 187.285156 120.410156 216.886719 C 165.019531 219.683594 182.167969 199.5 188.625 181.269531 " fill-opacity="1" fill-rule="nonzero"/><path fill="#947e6f" d="M 213.441406 181.269531 L 224.746094 181.269531 C 224.746094 181.269531 246.242188 133.667969 258.824219 145.257812 C 268.535156 154.203125 279.269531 187.285156 281.652344 216.886719 C 237.042969 219.683594 219.890625 199.5 213.441406 181.269531 " fill-opacity="1" fill-rule="nonzero"/><path fill="#ffffff" d="M 149.207031 161.042969 C 144.648438 161.382812 140.789062 175.027344 142.933594 178.230469 C 144.277344 180.238281 155.960938 179.421875 157.945312 177.117188 C 159.933594 174.8125 153.859375 160.699219 149.207031 161.042969 " fill-opacity="1" fill-rule="nonzero"/><path fill="#ffffff" d="M 252.855469 161.042969 C 257.414062 161.382812 261.273438 175.027344 259.128906 178.230469 C 257.785156 180.238281 246.101562 179.421875 244.117188 177.117188 C 242.128906 174.8125 248.207031 160.699219 252.855469 161.042969 " fill-opacity="1" fill-rule="nonzero"/><path fill="#f578a0" d="M 201.03125 226.328125 C 195.867188 226.328125 191.371094 227.773438 192.324219 230.757812 C 193.089844 233.164062 195.703125 235.582031 198.777344 236.425781 L 199.003906 247.652344 C 199.035156 250.40625 203.289062 250.414062 203.289062 247.652344 L 203.058594 236.480469 C 206.230469 235.699219 208.953125 233.222656 209.742188 230.757812 C 210.691406 227.773438 206.195312 226.328125 201.03125 226.328125 " fill-opacity="1" fill-rule="nonzero"/><g clip-path="url(#739c753425)"><path fill="#4a4b5c" d="M 125.058594 234.609375 C 124.898438 234.609375 124.734375 234.59375 124.566406 234.5625 L 111.984375 232.203125 C 110.542969 231.933594 109.59375 230.546875 109.863281 229.105469 C 110.132812 227.664062 111.523438 226.714844 112.960938 226.984375 L 125.546875 229.34375 C 126.984375 229.613281 127.933594 231 127.664062 232.441406 C 127.425781 233.71875 126.3125 234.609375 125.058594 234.609375 " fill-opacity="1" fill-rule="nonzero"/></g><path fill="#4a4b5c" d="M 114.402344 251.558594 C 113.324219 251.558594 112.3125 250.898438 111.914062 249.828125 C 111.402344 248.457031 112.101562 246.925781 113.476562 246.414062 L 124.132812 242.453125 C 125.503906 241.941406 127.03125 242.640625 127.542969 244.015625 C 128.054688 245.390625 127.355469 246.917969 125.980469 247.429688 L 115.328125 251.394531 C 115.019531 251.503906 114.710938 251.558594 114.402344 251.558594 " fill-opacity="1" fill-rule="nonzero"/><g clip-path="url(#d9853b82f6)"><path fill="#4a4b5c" d="M 277.003906 234.609375 C 275.75 234.609375 274.636719 233.71875 274.398438 232.441406 C 274.128906 231 275.078125 229.613281 276.519531 229.34375 L 289.101562 226.984375 C 290.535156 226.714844 291.925781 227.664062 292.199219 229.105469 C 292.46875 230.546875 291.519531 231.933594 290.078125 232.203125 L 277.496094 234.5625 C 277.328125 234.59375 277.164062 234.609375 277.003906 234.609375 " fill-opacity="1" fill-rule="nonzero"/></g><path fill="#4a4b5c" d="M 287.660156 251.558594 C 287.355469 251.558594 287.039062 251.503906 286.738281 251.394531 L 276.082031 247.429688 C 274.707031 246.917969 274.007812 245.390625 274.519531 244.015625 C 275.03125 242.640625 276.558594 241.941406 277.929688 242.453125 L 288.585938 246.414062 C 289.960938 246.925781 290.660156 248.457031 290.148438 249.828125 C 289.75 250.898438 288.738281 251.558594 287.660156 251.558594 " fill-opacity="1" fill-rule="nonzero"/><g clip-path="url(#263a028fda)"><g clip-path="url(#98a2c42dde)"><path fill="url(#299630ec88)" d="M 89.976562 258.425781 L 41.457031 126.363281 L 175.816406 77.214844 L 224.335938 209.277344 Z M 89.976562 258.425781 " fill-rule="nonzero"/></g></g><path fill="#dddad9" d="M 169.523438 164.851562 C 170.414062 164.5625 171.429688 164.066406 172.277344 163.570312 C 173.167969 163.074219 174.019531 162.496094 174.808594 161.835938 C 176.382812 160.59375 177.789062 159.085938 178.742188 157.410156 C 179.757812 155.734375 180.382812 153.8125 180.652344 151.910156 C 180.941406 149.945312 180.816406 147.980469 180.484375 146.015625 L 180.484375 145.890625 C 180.382812 144.609375 180.027344 143.203125 179.59375 141.859375 C 179.097656 140.515625 178.476562 139.277344 177.6875 138.054688 C 176.175781 135.636719 174.039062 133.507812 171.554688 131.726562 C 174.246094 133.238281 176.609375 135.265625 178.351562 137.664062 C 179.242188 138.839844 179.988281 140.183594 180.589844 141.53125 C 181.148438 142.875 181.605469 144.28125 181.832031 145.789062 L 181.832031 145.726562 C 182.289062 147.753906 182.515625 149.882812 182.328125 151.949219 C 182.164062 154.082031 181.605469 156.148438 180.527344 158.113281 C 179.511719 160.078125 178.058594 161.8125 176.320312 163.261719 C 175.429688 163.984375 174.515625 164.667969 173.5 165.226562 C 172.484375 165.785156 171.46875 166.339844 170.289062 166.734375 Z M 169.523438 164.851562 " fill-opacity="1" fill-rule="nonzero"/><path fill="#e3e4e5" d="M 130.191406 137.828125 C 130.191406 137.828125 148.117188 142.378906 140.367188 155.878906 C 140.367188 155.878906 143.910156 144.484375 130.191406 137.828125 Z M 130.191406 137.828125 " fill-opacity="1" fill-rule="nonzero"/><path fill="#dddddd" d="M 179.074219 139.441406 C 178.121094 137.972656 177.042969 136.691406 175.988281 135.511719 C 175.65625 135.285156 175.304688 135.058594 174.972656 134.890625 C 174.972656 134.890625 180.195312 141.734375 179.40625 149.179688 C 178.722656 155.570312 173.398438 162.910156 158.851562 161.628906 C 158.851562 161.628906 151.828125 161.6875 144.179688 163.984375 C 130.128906 162.144531 125.964844 168.535156 125.964844 168.535156 C 124.453125 172.460938 126.296875 177.382812 126.296875 177.382812 C 126.980469 183.277344 122.359375 185.964844 122.359375 185.964844 C 114.941406 189.5625 108.929688 183.152344 108.929688 183.152344 C 108.929688 183.152344 112.414062 186.914062 114.714844 191.175781 C 116.390625 200.644531 105.160156 204.699219 105.160156 204.699219 C 95.441406 209.121094 89.140625 206.101562 86.15625 203.808594 C 102.964844 220.640625 125.882812 200.105469 125.882812 200.105469 L 121.882812 196.570312 L 126.152344 192.871094 C 129.527344 187.535156 135.808594 182.65625 142.625 178.519531 L 156.445312 166.527344 L 169.8125 165.804688 C 188.027344 158.339844 179.074219 139.441406 179.074219 139.441406 Z M 179.074219 139.441406 " fill-opacity="1" fill-rule="nonzero"/><g clip-path="url(#2a80c10f37)"><g clip-path="url(#11ca9b4493)"><path fill="url(#a93033d7e4)" d="M 84.472656 204.523438 L 83.613281 202.195312 L 86.019531 201.3125 L 86.878906 203.644531 Z M 84.472656 204.523438 " fill-rule="nonzero"/></g></g><g clip-path="url(#d501dfc520)"><g clip-path="url(#1b65ab3dca)"><path fill="url(#874db546a5)" d="M 125.1875 233.296875 L 100.125 165.085938 L 175.832031 137.390625 L 200.894531 205.601562 Z M 125.1875 233.296875 " fill-rule="nonzero"/></g></g><path fill="#d8d5d4" d="M 117.613281 199.050781 C 119.644531 193.945312 121.035156 191.710938 124.140625 186.996094 C 127.230469 182.34375 130.835938 177.527344 135.101562 173.660156 C 139.371094 169.792969 144.492188 166.941406 150.210938 164.914062 C 155.886719 162.886719 162.230469 162.289062 168.363281 163.074219 L 168.984375 163.179688 L 169.148438 163.632812 L 184.027344 181.230469 L 182.226562 181.0625 L 167.222656 164.417969 L 168.074219 164.976562 C 162.332031 164.085938 156.324219 164.480469 150.8125 166.320312 C 145.296875 168.121094 140.242188 171.140625 135.910156 174.777344 C 131.582031 178.417969 127.828125 182.738281 124.617188 187.226562 C 121.363281 191.816406 119.789062 194.007812 117.613281 199.050781 Z M 117.613281 199.050781 " fill-opacity="1" fill-rule="nonzero"/><path fill="#c6c3c1" d="M 81.972656 198.496094 C 83.710938 201.304688 86.074219 203.828125 88.832031 205.792969 C 91.585938 207.757812 94.839844 209.203125 98.21875 209.554688 C 101.636719 209.949219 105.015625 209.390625 108.226562 208.152344 C 109.863281 207.53125 111.480469 206.910156 112.992188 206.1875 C 114.503906 205.460938 116.597656 204.386719 117.71875 203.4375 L 118.835938 206.746094 C 117.097656 207.695312 115.914062 208.027344 114.175781 208.585938 C 112.433594 209.144531 110.691406 209.660156 108.953125 210.09375 C 108.0625 210.320312 107.273438 210.550781 106.320312 210.714844 C 105.429688 210.878906 104.476562 211.003906 103.566406 211.105469 C 101.71875 211.210938 99.855469 211.167969 98.011719 210.816406 C 94.363281 210.136719 91.089844 208.398438 88.457031 206.226562 C 85.804688 203.996094 83.609375 201.347656 81.972656 198.496094 Z M 81.972656 198.496094 " fill-opacity="1" fill-rule="nonzero"/><path fill="#e2e1e0" d="M 81.207031 187.722656 C 81.496094 186.480469 81.929688 185.300781 82.449219 184.125 C 82.945312 182.945312 83.628906 181.828125 84.355469 180.753906 C 85.828125 178.5625 87.734375 176.597656 90.09375 175.089844 C 91.109375 174.46875 91.941406 173.515625 92.683594 172.503906 C 93.371094 171.488281 93.867188 170.4375 94.199219 169.257812 C 94.882812 166.960938 94.882812 164.605469 94.53125 162.1875 L 94.53125 162.289062 C 94.199219 161.046875 93.96875 159.828125 93.804688 158.527344 C 93.640625 157.285156 93.472656 156.003906 93.472656 154.761719 C 93.472656 153.523438 93.535156 152.238281 93.699219 151 C 93.929688 149.757812 94.261719 148.539062 94.882812 147.402344 C 94.488281 148.582031 94.324219 149.820312 94.261719 151.039062 C 94.199219 152.28125 94.324219 153.5 94.488281 154.679688 C 94.652344 155.921875 94.882812 157.097656 95.171875 158.277344 C 95.460938 159.457031 95.792969 160.636719 96.25 161.75 L 96.25 161.8125 C 96.539062 163.09375 96.707031 164.398438 96.707031 165.742188 C 96.644531 167.085938 96.414062 168.367188 95.980469 169.671875 C 95.523438 170.953125 94.859375 172.132812 94.011719 173.269531 C 93.160156 174.34375 92.167969 175.335938 90.863281 176.082031 C 88.625 177.363281 86.59375 179.058594 84.957031 181.0625 C 83.445312 183.132812 82.097656 185.363281 81.207031 187.722656 Z M 81.207031 187.722656 " fill-opacity="1" fill-rule="nonzero"/><g fill="#795e47" fill-opacity="1"><g transform="translate(116.421529, 130.05093)"><g><path d="M 5.828125 -2.28125 C 4.078125 -1.59375 2.851562 -2.132812 2.15625 -3.90625 L -8.09375 -30.171875 C -8.5 -31.191406 -8.507812 -31.992188 -8.125 -32.578125 C -7.75 -33.160156 -7.050781 -33.648438 -6.03125 -34.046875 C -4.644531 -34.585938 -3.359375 -34.398438 -2.171875 -33.484375 L 11.046875 -23.25 L 13.71875 -39.640625 C 13.851562 -40.546875 14.148438 -41.226562 14.609375 -41.6875 C 15.078125 -42.15625 15.757812 -42.566406 16.65625 -42.921875 C 18.4375 -43.609375 19.675781 -43.066406 20.375 -41.296875 L 30.625 -15.03125 C 31.320312 -13.257812 30.78125 -12.03125 29 -11.34375 C 27.226562 -10.644531 25.992188 -11.179688 25.296875 -12.953125 L 17.546875 -32.8125 L 15.484375 -19.328125 C 15.335938 -17.828125 14.726562 -16.867188 13.65625 -16.453125 C 12.570312 -16.023438 11.46875 -16.3125 10.34375 -17.3125 L -0.359375 -25.8125 L 7.390625 -5.953125 C 8.085938 -4.179688 7.566406 -2.957031 5.828125 -2.28125 Z M 5.828125 -2.28125 "/></g></g></g><g fill="#795e47" fill-opacity="1"><g transform="translate(167.275825, 113.870624)"><g><path d="M 6.15625 -0.8125 C 4.320312 -0.570312 3.28125 -1.394531 3.03125 -3.28125 L -0.640625 -31.234375 C -0.890625 -33.117188 -0.0976562 -34.179688 1.734375 -34.421875 C 3.585938 -34.660156 4.640625 -33.835938 4.890625 -31.953125 L 8.5625 -4 C 8.8125 -2.113281 8.007812 -1.050781 6.15625 -0.8125 Z M 6.15625 -0.8125 "/></g></g></g><g fill="#795e47" fill-opacity="1"><g transform="translate(195.927701, 110.760255)"><g><path d="M 6.171875 0.640625 C 4.335938 0.441406 3.519531 -0.601562 3.71875 -2.5 L 6.59375 -30.546875 C 6.789062 -32.441406 7.804688 -33.289062 9.640625 -33.09375 L 10.265625 -33.03125 C 11.710938 -32.882812 12.785156 -32.140625 13.484375 -30.796875 L 25.875 -7.21875 L 28.046875 -28.328125 C 28.140625 -29.253906 28.457031 -29.9375 29 -30.375 C 29.550781 -30.8125 30.28125 -30.984375 31.1875 -30.890625 C 33.039062 -30.691406 33.867188 -29.644531 33.671875 -27.75 L 30.796875 0.296875 C 30.597656 2.191406 29.617188 3.046875 27.859375 2.859375 L 27.375 2.8125 C 25.894531 2.65625 24.816406 1.914062 24.140625 0.59375 L 11.5 -23.703125 L 9.265625 -1.921875 C 9.066406 -0.0234375 8.035156 0.828125 6.171875 0.640625 Z M 6.171875 0.640625 "/></g></g></g><g fill="#795e47" fill-opacity="1"><g transform="translate(244.686824, 118.109921)"><g><path d="M 14.5625 6.609375 C 10.644531 5.015625 8.078125 2.757812 6.859375 -0.15625 C 5.648438 -3.082031 5.890625 -6.625 7.578125 -10.78125 L 14.453125 -27.640625 C 14.804688 -28.503906 15.304688 -29.066406 15.953125 -29.328125 C 16.597656 -29.585938 17.335938 -29.550781 18.171875 -29.21875 C 19.910156 -28.507812 20.421875 -27.269531 19.703125 -25.5 L 12.9375 -8.90625 C 11.84375 -6.21875 11.65625 -4.019531 12.375 -2.3125 C 13.09375 -0.601562 14.507812 0.679688 16.625 1.546875 C 18.75 2.410156 20.65625 2.476562 22.34375 1.75 C 24.039062 1.03125 25.4375 -0.671875 26.53125 -3.359375 L 33.296875 -19.953125 C 34.015625 -21.722656 35.238281 -22.253906 36.96875 -21.546875 C 38.707031 -20.847656 39.21875 -19.613281 38.5 -17.84375 L 31.625 -0.984375 C 29.9375 3.171875 27.648438 5.875 24.765625 7.125 C 21.878906 8.375 18.476562 8.203125 14.5625 6.609375 Z M 14.5625 6.609375 "/></g></g></g></svg>