<svg xmlns="http://www.w3.org/2000/svg" xmlns:xlink="http://www.w3.org/1999/xlink" width="140" zoomAndPan="magnify" viewBox="0 0 104.88 104.999996" height="140" preserveAspectRatio="xMidYMid meet" version="1.0"><defs><g/><clipPath id="50bd794a73"><path d="M 21 34 L 94 34 L 94 99.441406 L 21 99.441406 Z M 21 34 " clip-rule="nonzero"/></clipPath><clipPath id="3234565124"><path d="M 16.78125 72 L 25 72 L 25 76 L 16.78125 76 Z M 16.78125 72 " clip-rule="nonzero"/></clipPath><clipPath id="6282f76ceb"><path d="M 90 72 L 98.550781 72 L 98.550781 76 L 90 76 Z M 90 72 " clip-rule="nonzero"/></clipPath><clipPath id="bd19df2686"><path d="M 3 27 L 50 27 L 50 65 L 3 65 Z M 3 27 " clip-rule="nonzero"/></clipPath><clipPath id="79321c589e"><path d="M 22.902344 62.058594 C 22.902344 62.058594 9.445312 69.949219 4.167969 58.621094 C 4.167969 58.621094 2.085938 54.859375 7.457031 49.648438 C 7.457031 49.648438 11.148438 48.199219 10.269531 40.980469 C 10.269531 40.980469 7.308594 27.898438 25.835938 32.417969 C 25.835938 32.417969 40.402344 21.394531 48.261719 33.164062 C 48.261719 33.164062 52.355469 41.8125 44.039062 45.269531 C 44.066406 45.296875 21.621094 53.085938 22.902344 62.058594 Z M 22.902344 62.058594 " clip-rule="nonzero"/></clipPath><linearGradient x1="281.519589" gradientTransform="matrix(0.0869379, -0.0318021, -0.0318715, -0.0867486, 6.627623, 71.201469)" y1="533.498734" x2="304.311472" gradientUnits="userSpaceOnUse" y2="-168.441381" id="5e97db2c28"><stop stop-opacity="1" stop-color="rgb(100%, 97.999573%, 96.099854%)" offset="0"/><stop stop-opacity="1" stop-color="rgb(100%, 97.999573%, 96.099854%)" offset="0.0319118"/><stop stop-opacity="1" stop-color="rgb(100%, 97.999573%, 96.099854%)" offset="0.25"/><stop stop-opacity="1" stop-color="rgb(100%, 97.999573%, 96.099854%)" offset="0.375"/><stop stop-opacity="1" stop-color="rgb(100%, 97.999573%, 96.099854%)" offset="0.4375"/><stop stop-opacity="1" stop-color="rgb(99.935913%, 97.949219%, 96.061707%)" offset="0.453125"/><stop stop-opacity="1" stop-color="rgb(99.742126%, 97.793579%, 95.944214%)" offset="0.460938"/><stop stop-opacity="1" stop-color="rgb(99.479675%, 97.584534%, 95.785522%)" offset="0.46875"/><stop stop-opacity="1" stop-color="rgb(99.217224%, 97.375488%, 95.628357%)" offset="0.476562"/><stop stop-opacity="1" stop-color="rgb(98.953247%, 97.166443%, 95.469666%)" offset="0.484375"/><stop stop-opacity="1" stop-color="rgb(98.690796%, 96.957397%, 95.310974%)" offset="0.492188"/><stop stop-opacity="1" stop-color="rgb(98.428345%, 96.748352%, 95.153809%)" offset="0.5"/><stop stop-opacity="1" stop-color="rgb(98.165894%, 96.539307%, 94.995117%)" offset="0.507812"/><stop stop-opacity="1" stop-color="rgb(97.903442%, 96.330261%, 94.836426%)" offset="0.515625"/><stop stop-opacity="1" stop-color="rgb(97.639465%, 96.121216%, 94.67926%)" offset="0.523438"/><stop stop-opacity="1" stop-color="rgb(97.377014%, 95.91217%, 94.520569%)" offset="0.53125"/><stop stop-opacity="1" stop-color="rgb(97.114563%, 95.703125%, 94.361877%)" offset="0.539062"/><stop stop-opacity="1" stop-color="rgb(96.852112%, 95.49408%, 94.204712%)" offset="0.546875"/><stop stop-opacity="1" stop-color="rgb(96.589661%, 95.285034%, 94.046021%)" offset="0.554688"/><stop stop-opacity="1" stop-color="rgb(96.325684%, 95.074463%, 93.887329%)" offset="0.5625"/><stop stop-opacity="1" stop-color="rgb(96.063232%, 94.865417%, 93.730164%)" offset="0.570313"/><stop stop-opacity="1" stop-color="rgb(95.800781%, 94.656372%, 93.571472%)" offset="0.578125"/><stop stop-opacity="1" stop-color="rgb(95.53833%, 94.447327%, 93.412781%)" offset="0.585938"/><stop stop-opacity="1" stop-color="rgb(95.275879%, 94.238281%, 93.255615%)" offset="0.59375"/><stop stop-opacity="1" stop-color="rgb(95.011902%, 94.029236%, 93.096924%)" offset="0.601562"/><stop stop-opacity="1" stop-color="rgb(94.749451%, 93.82019%, 92.938232%)" offset="0.609375"/><stop stop-opacity="1" stop-color="rgb(94.487%, 93.611145%, 92.781067%)" offset="0.617188"/><stop stop-opacity="1" stop-color="rgb(94.224548%, 93.4021%, 92.622375%)" offset="0.625"/><stop stop-opacity="1" stop-color="rgb(93.960571%, 93.193054%, 92.463684%)" offset="0.632812"/><stop stop-opacity="1" stop-color="rgb(93.69812%, 92.984009%, 92.306519%)" offset="0.640625"/><stop stop-opacity="1" stop-color="rgb(93.435669%, 92.774963%, 92.147827%)" offset="0.648438"/><stop stop-opacity="1" stop-color="rgb(93.173218%, 92.565918%, 91.989136%)" offset="0.65625"/><stop stop-opacity="1" stop-color="rgb(92.910767%, 92.356873%, 91.83197%)" offset="0.664063"/><stop stop-opacity="1" stop-color="rgb(92.64679%, 92.147827%, 91.673279%)" offset="0.671875"/><stop stop-opacity="1" stop-color="rgb(92.384338%, 91.938782%, 91.514587%)" offset="0.679688"/><stop stop-opacity="1" stop-color="rgb(92.121887%, 91.729736%, 91.355896%)" offset="0.6875"/><stop stop-opacity="1" stop-color="rgb(91.859436%, 91.519165%, 91.19873%)" offset="0.695312"/><stop stop-opacity="1" stop-color="rgb(91.596985%, 91.31012%, 91.040039%)" offset="0.703125"/><stop stop-opacity="1" stop-color="rgb(91.333008%, 91.101074%, 90.881348%)" offset="0.710938"/><stop stop-opacity="1" stop-color="rgb(91.070557%, 90.892029%, 90.724182%)" offset="0.71875"/><stop stop-opacity="1" stop-color="rgb(90.808105%, 90.682983%, 90.565491%)" offset="0.726562"/><stop stop-opacity="1" stop-color="rgb(90.545654%, 90.473938%, 90.406799%)" offset="0.734375"/><stop stop-opacity="1" stop-color="rgb(90.306091%, 90.284729%, 90.263367%)" offset="0.75"/><stop stop-opacity="1" stop-color="rgb(90.19928%, 90.19928%, 90.19928%)" offset="0.968088"/><stop stop-opacity="1" stop-color="rgb(90.19928%, 90.19928%, 90.19928%)" offset="1"/></linearGradient><clipPath id="0e2dda8217"><path d="M 5 60 L 7 60 L 7 62 L 5 62 Z M 5 60 " clip-rule="nonzero"/></clipPath><clipPath id="c45bd1536c"><path d="M 6.382812 61.78125 C 6.074219 61.503906 5.78125 61.226562 5.472656 60.929688 C 5.472656 60.929688 5.78125 61.308594 6.382812 61.78125 Z M 6.382812 61.78125 " clip-rule="nonzero"/></clipPath><linearGradient x1="28.152005" gradientTransform="matrix(0.0869379, -0.0318021, -0.0318715, -0.0867486, 6.627623, 71.201469)" y1="109.62444" x2="30.97488" gradientUnits="userSpaceOnUse" y2="95.681023" id="f2c87b7ec9"><stop stop-opacity="1" stop-color="rgb(85.472107%, 84.342957%, 83.242798%)" offset="0"/><stop stop-opacity="1" stop-color="rgb(85.305786%, 84.187317%, 83.094788%)" offset="0.125"/><stop stop-opacity="1" stop-color="rgb(84.973145%, 83.874512%, 82.801819%)" offset="0.172505"/><stop stop-opacity="1" stop-color="rgb(84.80835%, 83.718872%, 82.655334%)" offset="0.25"/><stop stop-opacity="1" stop-color="rgb(84.642029%, 83.563232%, 82.507324%)" offset="0.375"/><stop stop-opacity="1" stop-color="rgb(84.309387%, 83.251953%, 82.214355%)" offset="0.5"/><stop stop-opacity="1" stop-color="rgb(83.978271%, 82.939148%, 81.921387%)" offset="0.625"/><stop stop-opacity="1" stop-color="rgb(83.647156%, 82.627869%, 81.626892%)" offset="0.75"/><stop stop-opacity="1" stop-color="rgb(83.314514%, 82.316589%, 81.333923%)" offset="0.827495"/><stop stop-opacity="1" stop-color="rgb(83.149719%, 82.16095%, 81.187439%)" offset="0.875"/><stop stop-opacity="1" stop-color="rgb(82.983398%, 82.003784%, 81.039429%)" offset="1"/></linearGradient><clipPath id="dc3de3aba6"><path d="M 20 43 L 50 43 L 50 66 L 20 66 Z M 20 43 " clip-rule="nonzero"/></clipPath><clipPath id="b703141c77"><path d="M 21.492188 65.363281 C 21.492188 65.363281 21.59375 63.886719 20.917969 62.832031 C 20.261719 61.78125 20.316406 59.527344 21.066406 58 C 23.808594 52.640625 31.484375 41.636719 43.464844 43.996094 L 49.921875 51.535156 C 49.921875 51.535156 39.390625 50.304688 21.492188 65.363281 Z M 21.492188 65.363281 " clip-rule="nonzero"/></clipPath><linearGradient x1="159.987334" gradientTransform="matrix(0.0869379, -0.0318021, -0.0318715, -0.0867486, 6.627623, 71.201469)" y1="84.822998" x2="549.106466" gradientUnits="userSpaceOnUse" y2="84.822998" id="660a619d03"><stop stop-opacity="1" stop-color="rgb(100%, 97.999573%, 96.099854%)" offset="0"/><stop stop-opacity="1" stop-color="rgb(100%, 97.999573%, 96.099854%)" offset="0.5"/><stop stop-opacity="1" stop-color="rgb(99.919128%, 97.935486%, 96.051025%)" offset="0.53125"/><stop stop-opacity="1" stop-color="rgb(99.697876%, 97.758484%, 95.916748%)" offset="0.546875"/><stop stop-opacity="1" stop-color="rgb(99.415588%, 97.53418%, 95.747375%)" offset="0.5625"/><stop stop-opacity="1" stop-color="rgb(99.134827%, 97.311401%, 95.578003%)" offset="0.578125"/><stop stop-opacity="1" stop-color="rgb(98.852539%, 97.087097%, 95.40863%)" offset="0.59375"/><stop stop-opacity="1" stop-color="rgb(98.571777%, 96.862793%, 95.239258%)" offset="0.609375"/><stop stop-opacity="1" stop-color="rgb(98.291016%, 96.638489%, 95.069885%)" offset="0.625"/><stop stop-opacity="1" stop-color="rgb(98.008728%, 96.414185%, 94.900513%)" offset="0.640625"/><stop stop-opacity="1" stop-color="rgb(97.727966%, 96.191406%, 94.73114%)" offset="0.65625"/><stop stop-opacity="1" stop-color="rgb(97.445679%, 95.967102%, 94.561768%)" offset="0.671875"/><stop stop-opacity="1" stop-color="rgb(97.164917%, 95.742798%, 94.392395%)" offset="0.6875"/><stop stop-opacity="1" stop-color="rgb(96.882629%, 95.518494%, 94.223022%)" offset="0.703125"/><stop stop-opacity="1" stop-color="rgb(96.601868%, 95.294189%, 94.05365%)" offset="0.71875"/><stop stop-opacity="1" stop-color="rgb(96.321106%, 95.071411%, 93.884277%)" offset="0.734375"/><stop stop-opacity="1" stop-color="rgb(96.038818%, 94.847107%, 93.714905%)" offset="0.75"/><stop stop-opacity="1" stop-color="rgb(95.758057%, 94.622803%, 93.545532%)" offset="0.765625"/><stop stop-opacity="1" stop-color="rgb(95.475769%, 94.398499%, 93.37616%)" offset="0.78125"/><stop stop-opacity="1" stop-color="rgb(95.195007%, 94.17572%, 93.206787%)" offset="0.796875"/><stop stop-opacity="1" stop-color="rgb(94.91272%, 93.951416%, 93.037415%)" offset="0.8125"/><stop stop-opacity="1" stop-color="rgb(94.631958%, 93.727112%, 92.868042%)" offset="0.828125"/><stop stop-opacity="1" stop-color="rgb(94.351196%, 93.502808%, 92.698669%)" offset="0.84375"/><stop stop-opacity="1" stop-color="rgb(94.068909%, 93.278503%, 92.529297%)" offset="0.859375"/><stop stop-opacity="1" stop-color="rgb(93.788147%, 93.055725%, 92.358398%)" offset="0.875"/><stop stop-opacity="1" stop-color="rgb(93.505859%, 92.831421%, 92.189026%)" offset="0.890625"/><stop stop-opacity="1" stop-color="rgb(93.225098%, 92.607117%, 92.019653%)" offset="0.90625"/><stop stop-opacity="1" stop-color="rgb(92.94281%, 92.382812%, 91.850281%)" offset="0.921875"/><stop stop-opacity="1" stop-color="rgb(92.662048%, 92.158508%, 91.680908%)" offset="0.9375"/><stop stop-opacity="1" stop-color="rgb(92.381287%, 91.93573%, 91.511536%)" offset="0.953125"/><stop stop-opacity="1" stop-color="rgb(92.098999%, 91.711426%, 91.342163%)" offset="0.96875"/><stop stop-opacity="1" stop-color="rgb(91.818237%, 91.487122%, 91.172791%)" offset="0.984375"/><stop stop-opacity="1" stop-color="rgb(91.53595%, 91.262817%, 91.003418%)" offset="1"/></linearGradient></defs><g clip-path="url(#50bd794a73)"><path fill="#fbf1e2" d="M 83.492188 35.589844 C 77.867188 30.410156 68.261719 51.679688 68.261719 51.679688 L 47.066406 51.679688 C 47.066406 51.679688 37.464844 30.410156 31.839844 35.589844 C 25.191406 41.714844 17.464844 73.179688 23.746094 85.542969 C 30.027344 97.90625 45.550781 99.441406 56.578125 99.441406 C 67.605469 99.441406 85.304688 97.90625 91.585938 85.542969 C 97.867188 73.179688 90.140625 41.714844 83.492188 35.589844 " fill-opacity="1" fill-rule="nonzero"/></g><path fill="#4a4b5c" d="M 45.808594 69.90625 C 45.808594 71.769531 44.613281 73.277344 43.132812 73.277344 C 41.65625 73.277344 40.457031 71.769531 40.457031 69.90625 C 40.457031 68.046875 41.65625 66.539062 43.132812 66.539062 C 44.613281 66.539062 45.808594 68.046875 45.808594 69.90625 " fill-opacity="1" fill-rule="nonzero"/><path fill="#4a4b5c" d="M 69.523438 69.90625 C 69.523438 71.769531 70.71875 73.277344 72.199219 73.277344 C 73.675781 73.277344 74.875 71.769531 74.875 69.90625 C 74.875 68.046875 73.675781 66.539062 72.199219 66.539062 C 70.71875 66.539062 69.523438 68.046875 69.523438 69.90625 " fill-opacity="1" fill-rule="nonzero"/><path fill="#f8b37b" d="M 52.121094 51.679688 L 47.066406 51.679688 C 47.066406 51.679688 37.464844 30.410156 31.839844 35.589844 C 27.503906 39.585938 22.707031 54.371094 21.640625 67.597656 C 41.574219 68.847656 49.238281 59.828125 52.121094 51.679688 " fill-opacity="1" fill-rule="nonzero"/><path fill="#947e6f" d="M 63.210938 51.679688 L 68.261719 51.679688 C 68.261719 51.679688 77.867188 30.410156 83.492188 35.589844 C 87.828125 39.585938 92.625 54.371094 93.691406 67.597656 C 73.757812 68.847656 66.09375 59.828125 63.210938 51.679688 " fill-opacity="1" fill-rule="nonzero"/><path fill="#ffffff" d="M 34.507812 42.644531 C 32.472656 42.792969 30.746094 48.890625 31.707031 50.324219 C 32.304688 51.21875 37.527344 50.855469 38.414062 49.828125 C 39.300781 48.796875 36.585938 42.488281 34.507812 42.644531 " fill-opacity="1" fill-rule="nonzero"/><path fill="#ffffff" d="M 80.824219 42.644531 C 82.859375 42.792969 84.585938 48.890625 83.625 50.324219 C 83.027344 51.21875 77.804688 50.855469 76.917969 49.828125 C 76.03125 48.796875 78.746094 42.488281 80.824219 42.644531 " fill-opacity="1" fill-rule="nonzero"/><path fill="#f578a0" d="M 57.664062 71.816406 C 55.359375 71.816406 53.347656 72.460938 53.773438 73.792969 C 54.117188 74.871094 55.285156 75.949219 56.660156 76.328125 L 56.761719 81.34375 C 56.773438 82.574219 58.675781 82.578125 58.675781 81.34375 L 58.574219 76.351562 C 59.988281 76.003906 61.207031 74.894531 61.558594 73.792969 C 61.984375 72.460938 59.972656 71.816406 57.664062 71.816406 " fill-opacity="1" fill-rule="nonzero"/><g clip-path="url(#3234565124)"><path fill="#4a4b5c" d="M 23.71875 75.515625 C 23.644531 75.515625 23.570312 75.507812 23.5 75.496094 L 17.875 74.441406 C 17.230469 74.320312 16.808594 73.699219 16.929688 73.058594 C 17.050781 72.414062 17.667969 71.988281 18.3125 72.109375 L 23.933594 73.164062 C 24.578125 73.285156 25.003906 73.902344 24.882812 74.546875 C 24.773438 75.117188 24.277344 75.515625 23.71875 75.515625 " fill-opacity="1" fill-rule="nonzero"/></g><path fill="#4a4b5c" d="M 18.957031 83.089844 C 18.476562 83.089844 18.023438 82.792969 17.84375 82.316406 C 17.617188 81.703125 17.929688 81.019531 18.542969 80.792969 L 23.304688 79.019531 C 23.917969 78.792969 24.601562 79.105469 24.828125 79.71875 C 25.054688 80.332031 24.742188 81.015625 24.128906 81.242188 L 19.367188 83.015625 C 19.234375 83.066406 19.09375 83.089844 18.957031 83.089844 " fill-opacity="1" fill-rule="nonzero"/><g clip-path="url(#6282f76ceb)"><path fill="#4a4b5c" d="M 91.613281 75.515625 C 91.054688 75.515625 90.554688 75.117188 90.449219 74.546875 C 90.328125 73.902344 90.753906 73.285156 91.398438 73.164062 L 97.019531 72.109375 C 97.660156 71.988281 98.28125 72.414062 98.402344 73.058594 C 98.523438 73.699219 98.101562 74.320312 97.457031 74.441406 L 91.832031 75.496094 C 91.757812 75.507812 91.6875 75.515625 91.613281 75.515625 " fill-opacity="1" fill-rule="nonzero"/></g><path fill="#4a4b5c" d="M 96.375 83.089844 C 96.238281 83.089844 96.097656 83.066406 95.964844 83.015625 L 91.203125 81.242188 C 90.589844 81.015625 90.277344 80.332031 90.503906 79.71875 C 90.730469 79.105469 91.414062 78.792969 92.027344 79.019531 L 96.789062 80.792969 C 97.402344 81.019531 97.714844 81.703125 97.488281 82.316406 C 97.308594 82.792969 96.859375 83.089844 96.375 83.089844 " fill-opacity="1" fill-rule="nonzero"/><g clip-path="url(#bd19df2686)"><g clip-path="url(#79321c589e)"><path fill="url(#5e97db2c28)" d="M 8.039062 86.160156 L -13.640625 27.148438 L 46.398438 5.183594 L 68.082031 64.195312 Z M 8.039062 86.160156 " fill-rule="nonzero"/></g></g><path fill="#dddad9" d="M 43.585938 44.34375 C 43.984375 44.214844 44.4375 43.996094 44.816406 43.773438 C 45.214844 43.550781 45.597656 43.292969 45.949219 42.996094 C 46.652344 42.441406 47.28125 41.769531 47.707031 41.019531 C 48.160156 40.269531 48.4375 39.410156 48.558594 38.5625 C 48.6875 37.683594 48.632812 36.804688 48.484375 35.929688 L 48.484375 35.871094 C 48.4375 35.300781 48.28125 34.671875 48.085938 34.070312 C 47.863281 33.46875 47.585938 32.917969 47.234375 32.371094 C 46.558594 31.289062 45.605469 30.339844 44.492188 29.542969 C 45.699219 30.21875 46.753906 31.125 47.53125 32.195312 C 47.929688 32.722656 48.261719 33.324219 48.53125 33.921875 C 48.78125 34.523438 48.984375 35.152344 49.085938 35.828125 L 49.085938 35.800781 C 49.289062 36.703125 49.390625 37.65625 49.308594 38.582031 C 49.234375 39.53125 48.984375 40.457031 48.503906 41.332031 C 48.050781 42.210938 47.402344 42.988281 46.625 43.632812 C 46.226562 43.957031 45.816406 44.261719 45.363281 44.511719 C 44.910156 44.761719 44.457031 45.011719 43.929688 45.1875 Z M 43.585938 44.34375 " fill-opacity="1" fill-rule="nonzero"/><path fill="#e3e4e5" d="M 26.011719 32.269531 C 26.011719 32.269531 34.019531 34.300781 30.558594 40.335938 C 30.558594 40.335938 32.140625 35.246094 26.011719 32.269531 Z M 26.011719 32.269531 " fill-opacity="1" fill-rule="nonzero"/><path fill="#dddddd" d="M 47.855469 32.992188 C 47.429688 32.335938 46.949219 31.761719 46.476562 31.234375 C 46.328125 31.132812 46.171875 31.03125 46.023438 30.957031 C 46.023438 30.957031 48.355469 34.015625 48.003906 37.34375 C 47.699219 40.195312 45.316406 43.476562 38.816406 42.902344 C 38.816406 42.902344 35.679688 42.933594 32.261719 43.957031 C 25.984375 43.136719 24.121094 45.988281 24.121094 45.988281 C 23.445312 47.746094 24.269531 49.945312 24.269531 49.945312 C 24.578125 52.578125 22.511719 53.777344 22.511719 53.777344 C 19.195312 55.386719 16.511719 52.523438 16.511719 52.523438 C 16.511719 52.523438 18.066406 54.203125 19.09375 56.105469 C 19.84375 60.339844 14.828125 62.148438 14.828125 62.148438 C 10.484375 64.128906 7.667969 62.777344 6.335938 61.753906 C 13.84375 69.273438 24.085938 60.097656 24.085938 60.097656 L 22.296875 58.519531 L 24.207031 56.863281 C 25.714844 54.480469 28.519531 52.300781 31.566406 50.453125 L 37.742188 45.09375 L 43.714844 44.769531 C 51.855469 41.433594 47.855469 32.992188 47.855469 32.992188 Z M 47.855469 32.992188 " fill-opacity="1" fill-rule="nonzero"/><g clip-path="url(#0e2dda8217)"><g clip-path="url(#c45bd1536c)"><path fill="url(#f2c87b7ec9)" d="M 5.582031 62.074219 L 5.199219 61.03125 L 6.273438 60.636719 L 6.65625 61.679688 Z M 5.582031 62.074219 " fill-rule="nonzero"/></g></g><g clip-path="url(#dc3de3aba6)"><g clip-path="url(#b703141c77)"><path fill="url(#660a619d03)" d="M 23.777344 74.929688 L 12.578125 44.449219 L 46.40625 32.074219 L 57.605469 62.554688 Z M 23.777344 74.929688 " fill-rule="nonzero"/></g></g><path fill="#d8d5d4" d="M 20.390625 59.628906 C 21.296875 57.34375 21.917969 56.347656 23.308594 54.242188 C 24.6875 52.160156 26.300781 50.007812 28.207031 48.28125 C 30.113281 46.554688 32.402344 45.277344 34.957031 44.375 C 37.492188 43.46875 40.328125 43.199219 43.066406 43.550781 L 43.347656 43.597656 L 43.417969 43.800781 L 50.066406 51.664062 L 49.261719 51.589844 L 42.558594 44.152344 L 42.9375 44.402344 C 40.375 44.003906 37.6875 44.179688 35.226562 45 C 32.761719 45.804688 30.503906 47.152344 28.566406 48.78125 C 26.632812 50.40625 24.957031 52.335938 23.519531 54.34375 C 22.066406 56.394531 21.363281 57.375 20.390625 59.628906 Z M 20.390625 59.628906 " fill-opacity="1" fill-rule="nonzero"/><path fill="#c6c3c1" d="M 4.464844 59.378906 C 5.242188 60.632812 6.296875 61.761719 7.53125 62.640625 C 8.761719 63.515625 10.214844 64.164062 11.722656 64.320312 C 13.253906 64.496094 14.761719 64.246094 16.195312 63.691406 C 16.929688 63.414062 17.652344 63.136719 18.328125 62.816406 C 19.003906 62.492188 19.9375 62.011719 20.4375 61.585938 L 20.9375 63.066406 C 20.160156 63.488281 19.632812 63.636719 18.855469 63.886719 C 18.078125 64.136719 17.296875 64.367188 16.519531 64.5625 C 16.121094 64.664062 15.769531 64.765625 15.34375 64.839844 C 14.945312 64.914062 14.519531 64.96875 14.113281 65.015625 C 13.289062 65.058594 12.457031 65.042969 11.632812 64.882812 C 10.003906 64.578125 8.539062 63.804688 7.363281 62.832031 C 6.179688 61.835938 5.195312 60.652344 4.464844 59.378906 Z M 4.464844 59.378906 " fill-opacity="1" fill-rule="nonzero"/><path fill="#e2e1e0" d="M 4.121094 54.5625 C 4.25 54.011719 4.445312 53.484375 4.679688 52.957031 C 4.898438 52.429688 5.207031 51.929688 5.53125 51.449219 C 6.1875 50.472656 7.039062 49.59375 8.09375 48.917969 C 8.546875 48.640625 8.917969 48.21875 9.253906 47.765625 C 9.558594 47.3125 9.78125 46.839844 9.929688 46.3125 C 10.234375 45.289062 10.234375 44.234375 10.074219 43.152344 L 10.074219 43.199219 C 9.929688 42.644531 9.824219 42.101562 9.753906 41.519531 C 9.679688 40.964844 9.605469 40.390625 9.605469 39.835938 C 9.605469 39.28125 9.632812 38.710938 9.707031 38.15625 C 9.808594 37.601562 9.957031 37.054688 10.234375 36.546875 C 10.058594 37.074219 9.984375 37.628906 9.957031 38.171875 C 9.929688 38.726562 9.984375 39.273438 10.058594 39.800781 C 10.132812 40.355469 10.234375 40.878906 10.363281 41.40625 C 10.492188 41.933594 10.640625 42.460938 10.84375 42.960938 L 10.84375 42.988281 C 10.972656 43.558594 11.046875 44.140625 11.046875 44.742188 C 11.019531 45.34375 10.917969 45.917969 10.722656 46.5 C 10.519531 47.070312 10.222656 47.597656 9.84375 48.105469 C 9.464844 48.585938 9.019531 49.03125 8.4375 49.363281 C 7.4375 49.933594 6.53125 50.691406 5.796875 51.589844 C 5.121094 52.511719 4.519531 53.511719 4.121094 54.5625 Z M 4.121094 54.5625 " fill-opacity="1" fill-rule="nonzero"/><g fill="#795e47" fill-opacity="1"><g transform="translate(19.858386, 28.794324)"><g><path d="M 2.609375 -1.015625 C 1.816406 -0.710938 1.265625 -0.957031 0.953125 -1.75 L -3.625 -13.484375 C -3.800781 -13.941406 -3.800781 -14.296875 -3.625 -14.546875 C -3.457031 -14.804688 -3.144531 -15.023438 -2.6875 -15.203125 C -2.070312 -15.441406 -1.5 -15.359375 -0.96875 -14.953125 L 4.9375 -10.375 L 6.140625 -17.703125 C 6.191406 -18.117188 6.320312 -18.425781 6.53125 -18.625 C 6.738281 -18.820312 7.046875 -19 7.453125 -19.15625 C 8.234375 -19.46875 8.78125 -19.234375 9.09375 -18.453125 L 13.671875 -6.71875 C 13.984375 -5.925781 13.75 -5.375 12.96875 -5.0625 C 12.164062 -4.757812 11.609375 -5.003906 11.296875 -5.796875 L 7.828125 -14.671875 L 6.921875 -8.640625 C 6.847656 -7.972656 6.570312 -7.546875 6.09375 -7.359375 C 5.613281 -7.171875 5.125 -7.296875 4.625 -7.734375 L -0.171875 -11.53125 L 3.296875 -2.65625 C 3.609375 -1.863281 3.378906 -1.316406 2.609375 -1.015625 Z M 2.609375 -1.015625 "/></g></g></g><g fill="#795e47" fill-opacity="1"><g transform="translate(42.582471, 21.564206)"><g><path d="M 2.734375 -0.359375 C 1.921875 -0.253906 1.457031 -0.625 1.34375 -1.46875 L -0.296875 -13.953125 C -0.398438 -14.796875 -0.046875 -15.269531 0.765625 -15.375 C 1.609375 -15.488281 2.082031 -15.125 2.1875 -14.28125 L 3.828125 -1.796875 C 3.941406 -0.953125 3.578125 -0.472656 2.734375 -0.359375 Z M 2.734375 -0.359375 "/></g></g></g><g fill="#795e47" fill-opacity="1"><g transform="translate(55.385471, 20.174349)"><g><path d="M 2.75 0.28125 C 1.925781 0.195312 1.554688 -0.269531 1.640625 -1.125 L 2.9375 -13.640625 C 3.019531 -14.484375 3.472656 -14.863281 4.296875 -14.78125 L 4.578125 -14.75 C 5.234375 -14.6875 5.71875 -14.351562 6.03125 -13.75 L 11.5625 -3.234375 L 12.53125 -12.65625 C 12.570312 -13.070312 12.710938 -13.375 12.953125 -13.5625 C 13.203125 -13.757812 13.523438 -13.835938 13.921875 -13.796875 C 14.753906 -13.703125 15.128906 -13.234375 15.046875 -12.390625 L 13.75 0.125 C 13.664062 0.976562 13.234375 1.363281 12.453125 1.28125 L 12.234375 1.25 C 11.566406 1.1875 11.082031 0.851562 10.78125 0.25 L 5.140625 -10.59375 L 4.140625 -0.875 C 4.054688 -0.0195312 3.59375 0.363281 2.75 0.28125 Z M 2.75 0.28125 "/></g></g></g><g fill="#795e47" fill-opacity="1"><g transform="translate(77.173337, 23.458523)"><g><path d="M 6.5 2.953125 C 4.757812 2.242188 3.613281 1.238281 3.0625 -0.0625 C 2.519531 -1.375 2.625 -2.957031 3.375 -4.8125 L 6.453125 -12.34375 C 6.609375 -12.726562 6.832031 -12.976562 7.125 -13.09375 C 7.414062 -13.207031 7.75 -13.1875 8.125 -13.03125 C 8.90625 -12.71875 9.132812 -12.171875 8.8125 -11.390625 L 5.78125 -3.96875 C 5.300781 -2.769531 5.21875 -1.789062 5.53125 -1.03125 C 5.84375 -0.269531 6.472656 0.300781 7.421875 0.6875 C 8.367188 1.070312 9.222656 1.101562 9.984375 0.78125 C 10.742188 0.457031 11.363281 -0.300781 11.84375 -1.5 L 14.875 -8.921875 C 15.195312 -9.703125 15.75 -9.929688 16.53125 -9.609375 C 17.300781 -9.296875 17.523438 -8.75 17.203125 -7.96875 L 14.125 -0.4375 C 13.375 1.414062 12.351562 2.625 11.0625 3.1875 C 9.769531 3.75 8.25 3.671875 6.5 2.953125 Z M 6.5 2.953125 "/></g></g></g></svg>